<svg width="656" height="800" viewBox="0 0 656 800" fill="none" xmlns="http://www.w3.org/2000/svg">
<rect width="656" height="800" fill="#F5F5F5"/>
<g id="2026 1" clip-path="url(#clip0_0_1)">
<g id="Group">
<path id="Vector" d="M234.093 408.122C235.053 467.409 243.269 479.049 270.481 472.866C301.568 465.802 327.081 443.666 339.658 414.366L348.331 394.166C354.097 380.735 354.291 365.564 348.872 351.99C343.452 338.416 332.862 327.551 319.431 321.785C291.463 309.779 266.897 334.007 254.89 361.975C226.982 372.937 250.635 375.755 234.093 408.122Z" fill="#2F2E41"/>
<path id="Vector_2" d="M395.125 294.019L403.477 279.886C404.497 278.16 405.113 276.226 405.278 274.228C405.444 272.231 405.155 270.222 404.434 268.351C403.712 266.481 402.576 264.799 401.112 263.43C399.647 262.062 397.892 261.042 395.977 260.449C393.956 259.823 391.814 259.689 389.73 260.058C387.646 260.427 385.681 261.289 383.998 262.572C382.315 263.855 380.963 265.521 380.055 267.433C379.147 269.344 378.709 271.445 378.777 273.56L379.268 288.752L340.016 396.321L361.416 400.79L395.125 294.019Z" fill="#ED9DA0"/>
<path id="Vector_3" d="M188.625 559.195L178.344 571.995C177.089 573.558 176.203 575.385 175.755 577.339C175.306 579.293 175.306 581.323 175.754 583.277C176.202 585.231 177.087 587.058 178.342 588.621C179.597 590.184 181.19 591.443 183.001 592.303C184.912 593.211 187.013 593.648 189.128 593.579C191.242 593.51 193.31 592.937 195.158 591.907C197.007 590.877 198.582 589.42 199.753 587.658C200.924 585.896 201.657 583.879 201.891 581.776L203.57 566.669L257.746 465.789L237.201 458.319L188.625 559.195Z" fill="#ED9DA0"/>
<path id="Vector_4" d="M252.141 665.68L253.654 683.857L254.009 688.098L354.629 678.42C358.097 678.029 361.423 676.825 364.338 674.907C367.253 672.988 369.675 670.409 371.405 667.379C373.136 664.349 374.128 660.953 374.3 657.468C374.472 653.983 373.819 650.506 372.395 647.32L339.945 577.657L328.736 553.595L280.164 542.386C240.111 573.042 276.147 606.874 321.487 641.099C323.262 642.444 325.055 643.789 326.867 645.134L252.141 665.68Z" fill="#090814"/>
<path id="Vector_5" d="M218.237 728.624C219.464 728.8 220.715 728.658 221.871 728.211C223.026 727.764 224.048 727.027 224.837 726.072L257.75 686.23L255.882 667.549L244.66 660.816C243.742 660.265 242.715 659.921 241.651 659.807C240.586 659.693 239.51 659.812 238.496 660.156C237.482 660.501 236.556 661.061 235.78 661.8C235.005 662.538 234.4 663.436 234.007 664.432L212.54 718.814C212.139 719.83 211.973 720.923 212.055 722.012C212.137 723.1 212.465 724.156 213.013 725.1C213.562 726.044 214.317 726.852 215.222 727.463C216.127 728.073 217.159 728.47 218.24 728.625L218.237 728.624Z" fill="#090814"/>
<path id="Vector_6" d="M208.897 721.151C210.124 721.327 211.375 721.185 212.531 720.738C213.686 720.291 214.708 719.554 215.497 718.599L248.41 678.757L246.533 660.075L235.311 653.342C234.393 652.791 233.366 652.447 232.302 652.333C231.237 652.219 230.161 652.338 229.147 652.682C228.133 653.027 227.207 653.587 226.431 654.326C225.656 655.064 225.051 655.962 224.658 656.958L203.191 711.34C202.79 712.356 202.624 713.449 202.706 714.538C202.788 715.626 203.116 716.682 203.664 717.626C204.213 718.57 204.968 719.378 205.873 719.989C206.778 720.599 207.81 720.996 208.891 721.151H208.897Z" fill="#090814"/>
<path id="Vector_7" d="M242.801 658.207L244.669 680.625L345.287 670.945C348.755 670.554 352.082 669.351 354.997 667.433C357.913 665.515 360.335 662.936 362.067 659.906C363.798 656.876 364.791 653.48 364.964 649.994C365.136 646.509 364.485 643.031 363.061 639.845L336.208 579.745V546.119L270.823 534.91C229.194 566.77 269.755 602.063 317.523 637.658L242.801 658.207Z" fill="#090814"/>
<path id="Vector_8" d="M306.318 394.798C321.794 394.798 334.34 382.252 334.34 366.776C334.34 351.3 321.794 338.754 306.318 338.754C290.842 338.754 278.296 351.3 278.296 366.776C278.296 382.252 290.842 394.798 306.318 394.798Z" fill="#ED9DA0"/>
<path id="Vector_9" d="M268.955 413.48L308.186 439.634L341.813 432.161L323.132 413.48V385.458L293.242 383.59C292.612 394.78 286.201 405.02 268.955 413.48Z" fill="#ED9DA0"/>
<path id="Vector_10" d="M263.351 544.25L336.209 553.591L353.022 475.129C360.833 454.302 356.351 435.901 341.89 419.469C341.337 416.704 339.864 414.208 337.712 412.388C335.559 410.567 332.853 409.529 330.035 409.443L323.135 409.743C323.915 434.519 305.661 428.552 278.299 407.875L274.999 408.866C270.728 410.147 267.061 412.924 264.669 416.687C262.277 420.451 261.32 424.95 261.974 429.361L264.987 449.697C266.265 457.759 268.249 465.693 270.918 473.407C278.38 495.732 275.711 519.365 263.351 544.25Z" fill="#17B8A6"/>
<path id="Vector_11" d="M229.724 460.184L263.352 471.393L278.297 417.217L273.234 414.917C269.036 413.009 264.27 412.769 259.902 414.247C255.534 415.724 251.891 418.808 249.714 422.873L229.724 460.184Z" fill="#17B8A6"/>
<path id="Vector_12" d="M328.736 409.744L347.418 430.293L369.835 394.798L341.813 379.853L328.736 409.744Z" fill="#17B8A6"/>
<path id="Vector_13" d="M273.625 358.369C291.234 365.009 310.025 364.321 329.669 358.369V335.952H273.625V358.369Z" fill="#2F2E41"/>
<path id="Vector_14" d="M282.617 800C325.751 800 360.718 798.179 360.718 795.932C360.718 793.685 325.751 791.864 282.617 791.864C239.483 791.864 204.516 793.685 204.516 795.932C204.516 798.179 239.483 800 282.617 800Z" fill="#E6E6E6"/>
<path id="Vector_15" d="M119.268 292.042C123.375 290.452 125.808 286.846 124.702 283.989C123.596 281.131 119.37 280.104 115.262 281.694C111.155 283.284 108.722 286.889 109.828 289.747C110.934 292.604 115.16 293.632 119.268 292.042Z" fill="#17B8A6"/>
<path id="Vector_16" d="M63.065 342.803C67.1724 341.213 69.6055 337.607 68.4993 334.75C67.3932 331.892 63.1667 330.865 59.0593 332.455C54.9518 334.045 52.5188 337.65 53.6249 340.508C54.7311 343.365 58.9575 344.393 63.065 342.803Z" fill="#090814"/>
<path id="Vector_17" d="M47.7898 395.216C49.6738 394.771 50.6821 392.215 50.0419 389.506C49.4017 386.798 47.3554 384.963 45.4714 385.409C43.5874 385.854 42.5791 388.411 43.2193 391.119C43.8595 393.827 45.9058 395.662 47.7898 395.216Z" fill="#17B8A6"/>
<path id="Vector_18" d="M65.9418 320.349C67.8258 319.904 68.8341 317.348 68.1939 314.639C67.5537 311.931 65.5074 310.096 63.6234 310.542C61.7393 310.987 60.731 313.544 61.3712 316.252C62.0114 318.96 64.0577 320.795 65.9418 320.349Z" fill="#FF6584"/>
<path id="Vector_19" d="M94.8137 290.006C96.6978 289.561 97.7061 287.005 97.0659 284.296C96.4257 281.588 94.3794 279.753 92.4953 280.199C90.6113 280.644 89.603 283.201 90.2432 285.909C90.8834 288.617 92.9297 290.452 94.8137 290.006Z" fill="#D6D6E3"/>
<path id="Vector_20" d="M234.073 235.457C236.059 233.123 234.95 228.918 231.596 226.063C228.242 223.208 223.913 222.785 221.927 225.118C219.941 227.452 221.05 231.657 224.404 234.512C227.758 237.367 232.087 237.79 234.073 235.457Z" fill="#17B8A6"/>
<path id="Vector_21" d="M305.47 260.712C307.456 258.378 306.347 254.173 302.993 251.318C299.639 248.463 295.31 248.04 293.324 250.373C291.338 252.707 292.447 256.912 295.801 259.767C299.155 262.622 303.484 263.045 305.47 260.712Z" fill="#090814"/>
<path id="Vector_22" d="M354.93 245.758C357.006 243.905 357.644 241.231 356.355 239.786C355.065 238.342 352.336 238.674 350.26 240.527C348.183 242.381 347.545 245.055 348.835 246.5C350.125 247.944 352.853 247.612 354.93 245.758Z" fill="#17B8A6"/>
<path id="Vector_23" d="M280.451 265.443C282.527 263.59 283.165 260.916 281.876 259.471C280.586 258.027 277.857 258.359 275.781 260.212C273.704 262.066 273.066 264.74 274.356 266.185C275.646 267.629 278.374 267.297 280.451 265.443Z" fill="#FF6584"/>
<path id="Vector_24" d="M240.022 254.503C242.098 252.65 242.736 249.976 241.447 248.531C240.157 247.087 237.428 247.419 235.352 249.272C233.275 251.126 232.637 253.8 233.927 255.245C235.217 256.689 237.945 256.357 240.022 254.503Z" fill="#17B8A6"/>
<path id="Vector_25" d="M531.147 284.832C533.789 283.956 535.437 281.756 534.827 279.918C534.218 278.08 531.582 277.3 528.94 278.176C526.298 279.052 524.65 281.252 525.259 283.09C525.869 284.928 528.505 285.708 531.147 284.832Z" fill="#17B8A6"/>
<path id="Vector_26" d="M324.986 199.932C329.093 198.342 331.526 194.736 330.42 191.879C329.314 189.021 325.088 187.994 320.98 189.584C316.873 191.174 314.44 194.779 315.546 197.637C316.652 200.494 320.878 201.522 324.986 199.932Z" fill="#17B8A6"/>
<path id="Vector_27" d="M268.781 250.69C272.888 249.1 275.321 245.494 274.215 242.637C273.109 239.779 268.883 238.752 264.775 240.342C260.668 241.932 258.235 245.537 259.341 248.395C260.447 251.252 264.673 252.28 268.781 250.69Z" fill="#D6D6E3"/>
<path id="Vector_28" d="M271.658 228.237C273.542 227.791 274.55 225.235 273.91 222.526C273.27 219.818 271.223 217.983 269.339 218.429C267.455 218.874 266.447 221.431 267.087 224.139C267.727 226.847 269.774 228.682 271.658 228.237Z" fill="#FF6584"/>
<path id="Vector_29" d="M300.529 197.893C302.413 197.448 303.421 194.892 302.781 192.183C302.141 189.475 300.094 187.64 298.21 188.086C296.326 188.531 295.318 191.088 295.958 193.796C296.598 196.504 298.645 198.339 300.529 197.893Z" fill="#3F3D56"/>
<path id="Vector_30" d="M533.205 321.031C535.191 318.697 534.082 314.492 530.728 311.637C527.374 308.782 523.045 308.359 521.059 310.692C519.073 313.026 520.182 317.231 523.536 320.086C526.89 322.941 531.219 323.364 533.205 321.031Z" fill="#17B8A6"/>
<path id="Vector_31" d="M210.595 248.857C214.702 247.267 217.135 243.661 216.029 240.804C214.923 237.946 210.697 236.919 206.589 238.509C202.482 240.099 200.049 243.704 201.155 246.562C202.261 249.419 206.488 250.447 210.595 248.857Z" fill="#17B8A6"/>
<path id="Vector_32" d="M155.456 198.761C159.563 197.171 161.996 193.565 160.89 190.708C159.784 187.85 155.558 186.823 151.45 188.413C147.343 190.003 144.91 193.608 146.016 196.466C147.122 199.323 151.348 200.351 155.456 198.761Z" fill="#D6D6E3"/>
<path id="Vector_33" d="M108.983 351.827C110.867 351.381 111.875 348.825 111.235 346.116C110.595 343.408 108.548 341.573 106.664 342.019C104.78 342.464 103.772 345.021 104.412 347.729C105.052 350.437 107.099 352.272 108.983 351.827Z" fill="#17B8A6"/>
<path id="Vector_34" d="M157.269 277.164C159.153 276.718 160.161 274.162 159.521 271.453C158.881 268.745 156.834 266.91 154.95 267.356C153.066 267.801 152.058 270.358 152.698 273.066C153.338 275.774 155.385 277.609 157.269 277.164Z" fill="#FF6584"/>
<path id="Vector_35" d="M186.14 246.82C188.024 246.375 189.032 243.819 188.392 241.11C187.752 238.402 185.705 236.567 183.821 237.013C181.937 237.458 180.929 240.015 181.569 242.723C182.209 245.431 184.256 247.266 186.14 246.82Z" fill="#3F3D56"/>
<path id="Vector_36" d="M542.542 191.747C546.649 190.157 549.082 186.551 547.976 183.694C546.87 180.836 542.644 179.809 538.536 181.399C534.429 182.989 531.996 186.594 533.102 189.452C534.208 192.309 538.435 193.337 542.542 191.747Z" fill="#17B8A6"/>
<path id="Vector_37" d="M486.337 242.508C490.444 240.918 492.877 237.312 491.771 234.455C490.665 231.597 486.439 230.57 482.331 232.16C478.224 233.75 475.791 237.355 476.897 240.213C478.003 243.07 482.229 244.098 486.337 242.508Z" fill="#D6D6E3"/>
<path id="Vector_38" d="M456.716 247.482C458.6 247.036 459.608 244.48 458.968 241.771C458.328 239.063 456.281 237.228 454.397 237.674C452.513 238.119 451.505 240.676 452.145 243.384C452.785 246.092 454.832 247.927 456.716 247.482Z" fill="#17B8A6"/>
<path id="Vector_39" d="M489.214 220.054C491.098 219.609 492.106 217.053 491.466 214.344C490.826 211.636 488.779 209.801 486.895 210.247C485.011 210.692 484.003 213.249 484.643 215.957C485.283 218.665 487.33 220.5 489.214 220.054Z" fill="#FF6584"/>
<path id="Vector_40" d="M518.085 189.711C519.969 189.266 520.977 186.71 520.337 184.001C519.697 181.293 517.65 179.458 515.766 179.904C513.882 180.349 512.874 182.906 513.514 185.614C514.154 188.322 516.201 190.157 518.085 189.711Z" fill="#3F3D56"/>
<path id="Vector_41" d="M549.704 233.117C551.588 232.672 552.596 230.116 551.956 227.407C551.316 224.699 549.269 222.864 547.385 223.31C545.501 223.755 544.493 226.312 545.133 229.02C545.773 231.728 547.82 233.563 549.704 233.117Z" fill="#D6D6E3"/>
<path id="Vector_42" d="M213.321 189.159C210.859 192.81 210.921 197.159 213.461 198.873C216.002 200.586 220.058 199.015 222.52 195.364C224.983 191.712 224.921 187.363 222.381 185.65C219.84 183.936 215.784 185.507 213.321 189.159Z" fill="#17B8A6"/>
<path id="Vector_43" d="M109.093 313.381C107.798 314.82 108.424 317.496 110.492 319.358C112.56 321.22 115.287 321.564 116.582 320.125C117.878 318.686 117.251 316.01 115.183 314.148C113.115 312.286 110.388 311.943 109.093 313.381Z" fill="#17B8A6"/>
<path id="Vector_44" d="M77.21 219.064C81.3175 217.474 83.7505 213.868 82.6443 211.011C81.5382 208.153 77.3117 207.126 73.2043 208.716C69.0968 210.306 66.6638 213.911 67.77 216.769C68.8761 219.626 73.1026 220.654 77.21 219.064Z" fill="#17B8A6"/>
<path id="Vector_45" d="M21.0079 269.825C25.1153 268.235 27.5483 264.629 26.4422 261.772C25.336 258.914 21.1096 257.887 17.0021 259.477C12.8947 261.067 10.4617 264.672 11.5678 267.53C12.674 270.387 16.9004 271.415 21.0079 269.825Z" fill="#D6D6E3"/>
<path id="Vector_46" d="M5.72974 322.238C7.61377 321.793 8.62208 319.237 7.98188 316.528C7.34167 313.82 5.29537 311.985 3.41134 312.431C1.52731 312.876 0.518991 315.433 1.1592 318.141C1.79941 320.849 3.84571 322.684 5.72974 322.238Z" fill="#17B8A6"/>
<path id="Vector_47" d="M23.8818 247.371C25.7659 246.926 26.7742 244.37 26.134 241.661C25.4938 238.953 23.4475 237.118 21.5634 237.564C19.6794 238.009 18.6711 240.566 19.3113 243.274C19.9515 245.982 21.9978 247.817 23.8818 247.371Z" fill="#FF6584"/>
<path id="Vector_48" d="M52.7538 217.028C54.6378 216.583 55.6461 214.027 55.0059 211.318C54.3657 208.61 52.3194 206.775 50.4354 207.221C48.5514 207.666 47.543 210.223 48.1832 212.931C48.8235 215.639 50.8698 217.474 52.7538 217.028Z" fill="#3F3D56"/>
<g id="globo">
<path id="Vector_49" d="M391.238 5.79602C377.102 5.79602 363.545 11.4115 353.549 21.4072C343.554 31.4029 337.938 44.96 337.938 59.096C337.938 83.851 359.638 116.087 379.993 131.958C381.777 133.345 383.815 134.369 385.993 134.97L387.993 142.17C388.195 142.898 388.63 143.539 389.232 143.996C389.833 144.454 390.568 144.701 391.323 144.701H391.576C392.363 144.701 393.125 144.433 393.739 143.941C394.352 143.448 394.78 142.762 394.95 141.994L396.593 134.601C398.406 133.958 400.102 133.026 401.617 131.841C424.391 114.007 444.535 84.692 444.535 59.1C444.536 52.1005 443.157 45.1694 440.479 38.7025C437.801 32.2355 433.875 26.3595 428.926 21.4097C423.977 16.46 418.102 12.5335 411.635 9.85449C405.169 7.17548 398.238 5.79641 391.238 5.79602Z" fill="#17B8A6"/>
<path id="Vector_50" d="M400.121 138.235C393.721 154.281 388.565 150.625 383.97 138.235V135.005H400.121V138.235Z" fill="#3F3D56"/>
<path id="Vector_51" d="M392.853 136.628L392.49 167.081L392.474 168.115L392.401 273.905V278.815L392.385 280.366H390.762L390.778 278.896V273.905L390.859 168.115L390.948 160.823L391.239 136.613L392.853 136.628Z" fill="#3F3D56"/>
<path id="Vector_52" d="M392.563 280.364H390.932L390.779 278.894L390.747 273.903L390.093 168.113L386.765 136.447L388.372 136.277L390.948 160.827L391.715 168.119L392.038 273.909L392.046 275.468L392.401 278.819L392.563 280.364Z" fill="#3F3D56"/>
<path id="Vector_53" d="M397.327 136.447L394 168.119L393.063 273.909L393.006 280.369H391.528L392.045 275.469L392.053 273.91L392.376 168.12L392.489 167.086L395.719 136.278L397.327 136.447Z" fill="#3F3D56"/>
<path id="Vector_54" opacity="0.096" d="M398.42 17.999C371.283 17.999 349.285 36.199 349.285 58.645C349.285 77.523 369.293 102.107 388.055 114.21C389.752 115.291 391.624 116.069 393.587 116.51C395.813 123.138 403.358 116.226 403.358 116.226C404.995 115.753 406.555 115.046 407.99 114.126C428.99 100.526 416.573 78.17 416.573 58.653C416.573 36.199 425.557 17.999 398.42 17.999Z" fill="#E6E6E6"/>
</g>
<g id="numeros">
<path id="Vector_55" d="M230.718 134.909C228.931 119.016 229.66 126.733 232.033 120.809C234.406 114.885 237.199 113.619 240.21 111.223C243.221 108.827 246.169 106.462 249.056 104.123C251.943 101.784 254.677 99.485 257.256 97.212C259.835 94.939 262.324 92.666 264.72 90.393C267.116 88.12 269.358 85.908 271.447 83.758C273.536 81.608 275.44 79.488 277.16 77.4C281.838 71.9626 285.661 65.8445 288.497 59.256C290.998 53.271 292.283 46.8484 292.278 40.362C292.278 34.5874 291.387 29.8264 289.606 26.079C287.953 22.4688 285.172 19.4934 281.681 17.601C277.657 15.5765 273.19 14.5942 268.688 14.744C264.433 14.6386 260.229 15.6896 256.524 17.785C253.071 19.8254 250.262 22.795 248.415 26.355C246.376 30.3043 245.184 34.6357 244.915 39.072C244.915 39.072 240.536 41.939 236.758 41.525C232.98 41.111 229.803 37.414 229.803 37.414C230.019 32.5175 231.046 27.6908 232.844 23.131C234.578 18.7213 237.143 14.6858 240.4 11.244C243.786 7.71482 247.865 4.92315 252.38 3.04404C257.616 0.920078 263.231 -0.114637 268.88 0.00303937C277.112 0.00303937 284.145 1.50804 289.98 4.51804C295.674 7.39085 300.364 11.9207 303.434 17.511C306.567 23.163 308.134 29.982 308.134 37.968C308.147 43.8872 307.339 49.7796 305.734 55.477C304.132 61.1415 301.842 66.5884 298.915 71.696C295.854 77.0132 292.273 82.0136 288.225 86.624C286.238 89.1063 284.116 91.4766 281.867 93.724C279.594 95.9974 277.26 98.2704 274.867 100.543C272.474 102.816 269.986 105.027 267.403 107.178C264.817 109.324 262.142 111.472 259.378 113.622C256.614 115.772 253.819 117.891 250.992 119.98H309.415C309.415 119.98 312.515 124.43 312.515 128.163C312.515 131.896 309.415 134.909 309.415 134.909C309.415 134.909 232.505 150.802 230.718 134.909Z" fill="#17B8A6"/>
<path id="Vector_56" d="M612.05 139.364C604.183 139.364 597.364 137.828 591.592 134.756C586.063 131.895 581.269 127.795 577.585 122.776C574.162 118.022 571.718 112.634 570.397 106.926C568.953 100.268 568.273 93.4665 568.369 86.6541C568.344 79.7159 569.243 72.8052 571.041 66.1041C572.807 59.5719 575.247 53.2409 578.321 47.2131C580.685 42.866 583.332 38.6793 586.246 34.6801C589.228 30.5871 592.492 26.7076 596.015 23.0701C599.578 19.3841 603.357 15.8211 607.35 12.3811C611.386 8.90791 615.6 5.64749 619.975 2.61306C619.975 2.61306 626.748 2.46306 629.006 5.45806C631.264 8.45306 629.006 14.5931 629.006 14.5931C623.862 17.709 618.991 21.255 614.446 25.1931C609.629 29.3336 605.16 33.8629 601.084 38.7351C597.041 43.5405 593.52 48.761 590.578 54.3091C587.691 59.7771 584.588 70.8041 584.588 70.8041V63.9901C584.588 63.9901 591.745 63.4901 597.213 60.6671C602.893 57.7911 609.185 56.3365 615.551 56.4281C622.63 56.3189 629.605 58.1345 635.732 61.6811C641.665 65.1556 646.564 70.1495 649.924 76.1481C653.496 82.566 655.308 89.8142 655.177 97.1581C655.205 102.676 654.074 108.139 651.859 113.193C649.658 118.216 646.532 122.78 642.644 126.647C638.697 130.589 634.037 133.748 628.913 135.954C623.589 138.248 617.847 139.409 612.05 139.364ZM612.05 124.436C616.832 124.498 621.554 123.358 625.78 121.119C629.861 118.941 633.27 115.691 635.64 111.719C638.178 107.361 639.454 102.384 639.326 97.3431C639.453 92.303 638.177 87.3269 635.64 82.9701C633.284 79.0106 629.869 75.7874 625.78 73.6631C621.536 71.4823 616.821 70.375 612.05 70.4381C607.25 70.3812 602.507 71.4866 598.227 73.66C594.099 75.7643 590.649 78.9914 588.275 82.9701C585.738 87.3269 584.462 92.303 584.589 97.3431C584.461 102.384 585.738 107.361 588.275 111.719C590.664 115.709 594.107 118.962 598.227 121.119C602.489 123.351 607.239 124.491 612.05 124.436Z" fill="#17B8A6"/>
<path id="Vector_57" d="M463.617 134.909C461.83 119.016 462.559 126.733 464.932 120.809C467.305 114.885 470.098 113.619 473.109 111.223C476.12 108.827 479.068 106.462 481.955 104.123C484.842 101.784 487.576 99.485 490.155 97.212C492.734 94.939 495.223 92.666 497.619 90.393C500.015 88.12 502.257 85.908 504.346 83.758C506.435 81.608 508.339 79.488 510.059 77.4C514.737 71.9626 518.56 65.8445 521.396 59.256C523.897 53.271 525.182 46.8484 525.177 40.362C525.177 34.5874 524.286 29.8264 522.505 26.079C520.852 22.4688 518.071 19.4934 514.58 17.601C510.556 15.5765 506.089 14.5942 501.587 14.744C497.332 14.6386 493.128 15.6896 489.423 17.785C485.97 19.8254 483.161 22.795 481.314 26.355C479.275 30.3043 478.083 34.6357 477.814 39.072C477.814 39.072 473.435 41.939 469.657 41.525C465.879 41.111 462.702 37.414 462.702 37.414C462.918 32.5175 463.945 27.6908 465.743 23.131C467.477 18.7213 470.042 14.6858 473.299 11.244C476.685 7.71482 480.764 4.92315 485.279 3.04404C490.515 0.920078 496.13 -0.114637 501.779 0.00303937C510.011 0.00303937 517.044 1.50804 522.879 4.51804C528.573 7.39085 533.263 11.9207 536.333 17.511C539.466 23.163 541.033 29.982 541.033 37.968C541.046 43.8872 540.238 49.7796 538.633 55.477C537.031 61.1415 534.741 66.5884 531.814 71.696C528.753 77.0132 525.172 82.0136 521.124 86.624C519.137 89.1063 517.015 91.4766 514.766 93.724C512.493 95.9974 510.159 98.2704 507.766 100.543C505.373 102.816 502.885 105.027 500.302 107.178C497.716 109.324 495.041 111.472 492.277 113.622C489.513 115.772 486.718 117.891 483.891 119.98H542.314C542.314 119.98 545.414 124.43 545.414 128.163C545.414 131.896 542.314 134.909 542.314 134.909C542.314 134.909 465.404 150.802 463.617 134.909Z" fill="#17B8A6"/>
</g>
</g>
</g>
<defs>
<clipPath id="clip0_0_1">
<rect width="655.176" height="800" fill="white"/>
</clipPath>
</defs>
</svg>
